<svg width="24" height="25" viewBox="0 0 24 25" fill="none" xmlns="http://www.w3.org/2000/svg">
<g clip-path="url(#clip0)">
<path d="M22.9336 16.7923C23.4453 16.7923 23.86 16.3775 23.86 15.8658V6.04595C23.86 4.00267 22.1977 2.34033 20.1544 2.34033H18.9501V1.41392C18.9501 0.90227 18.5353 0.487518 18.0237 0.487518C17.512 0.487518 17.0973 0.90227 17.0973 1.41392V2.34033H12.8821V1.41392C12.8821 0.90227 12.4674 0.487518 11.9557 0.487518C11.4441 0.487518 11.0293 0.90227 11.0293 1.41392V2.34033H6.86048V1.41392C6.86048 0.90227 6.44573 0.487518 5.93408 0.487518C5.42242 0.487518 5.00767 0.90227 5.00767 1.41392V2.34033H3.84966C1.80638 2.34033 0.144043 4.00267 0.144043 6.04595V20.4979C0.144043 22.5412 1.80638 24.2035 3.84966 24.2035H20.1544C22.1977 24.2035 23.86 22.5412 23.86 20.4979C23.86 19.9862 23.4453 19.5715 22.9336 19.5715C22.422 19.5715 22.0072 19.9862 22.0072 20.4979C22.0072 21.5195 21.176 22.3507 20.1544 22.3507H3.84966C2.82802 22.3507 1.99685 21.5195 1.99685 20.4979V6.04595C1.99685 5.02431 2.82802 4.19314 3.84966 4.19314H5.00767V5.11954C5.00767 5.6312 5.42242 6.04595 5.93408 6.04595C6.44573 6.04595 6.86048 5.6312 6.86048 5.11954V4.19314H11.0293V5.11954C11.0293 5.6312 11.4441 6.04595 11.9557 6.04595C12.4674 6.04595 12.8821 5.6312 12.8821 5.11954V4.19314H17.0973V5.11954C17.0973 5.6312 17.512 6.04595 18.0237 6.04595C18.5353 6.04595 18.9501 5.6312 18.9501 5.11954V4.19314H20.1544C21.176 4.19314 22.0072 5.02431 22.0072 6.04595V15.8658C22.0072 16.3775 22.422 16.7923 22.9336 16.7923Z" fill="#454545"/>
<path d="M5.93397 11.1412C6.44561 11.1412 6.86038 10.7264 6.86038 10.2148C6.86038 9.70313 6.44561 9.28836 5.93397 9.28836C5.42233 9.28836 5.00757 9.70313 5.00757 10.2148C5.00757 10.7264 5.42233 11.1412 5.93397 11.1412Z" fill="#454545"/>
<path d="M13.9937 11.1412C14.5053 11.1412 14.9201 10.7264 14.9201 10.2148C14.9201 9.70313 14.5053 9.28836 13.9937 9.28836C13.482 9.28836 13.0673 9.70313 13.0673 10.2148C13.0673 10.7264 13.482 11.1412 13.9937 11.1412Z" fill="#454545"/>
<path d="M18.0236 11.1412C18.5352 11.1412 18.95 10.7264 18.95 10.2148C18.95 9.70313 18.5352 9.28836 18.0236 9.28836C17.5119 9.28836 17.0972 9.70313 17.0972 10.2148C17.0972 10.7264 17.5119 11.1412 18.0236 11.1412Z" fill="#454545"/>
<path d="M5.93397 15.171C6.44561 15.171 6.86038 14.7563 6.86038 14.2446C6.86038 13.733 6.44561 13.3182 5.93397 13.3182C5.42233 13.3182 5.00757 13.733 5.00757 14.2446C5.00757 14.7563 5.42233 15.171 5.93397 15.171Z" fill="#454545"/>
<path d="M5.93397 19.2009C6.44561 19.2009 6.86038 18.7862 6.86038 18.2745C6.86038 17.7629 6.44561 17.3481 5.93397 17.3481C5.42233 17.3481 5.00757 17.7629 5.00757 18.2745C5.00757 18.7862 5.42233 19.2009 5.93397 19.2009Z" fill="#454545"/>
<path d="M9.96388 11.1412C10.4755 11.1412 10.8903 10.7264 10.8903 10.2148C10.8903 9.70313 10.4755 9.28836 9.96388 9.28836C9.45224 9.28836 9.03748 9.70313 9.03748 10.2148C9.03748 10.7264 9.45224 11.1412 9.96388 11.1412Z" fill="#454545"/>
<path d="M9.96388 15.171C10.4755 15.171 10.8903 14.7563 10.8903 14.2446C10.8903 13.733 10.4755 13.3182 9.96388 13.3182C9.45224 13.3182 9.03748 13.733 9.03748 14.2446C9.03748 14.7563 9.45224 15.171 9.96388 15.171Z" fill="#454545"/>
<path d="M9.96388 19.2009C10.4755 19.2009 10.8903 18.7862 10.8903 18.2745C10.8903 17.7629 10.4755 17.3481 9.96388 17.3481C9.45224 17.3481 9.03748 17.7629 9.03748 18.2745C9.03748 18.7862 9.45224 19.2009 9.96388 19.2009Z" fill="#454545"/>
<path d="M13.9937 15.171C14.5053 15.171 14.9201 14.7563 14.9201 14.2446C14.9201 13.733 14.5053 13.3182 13.9937 13.3182C13.482 13.3182 13.0673 13.733 13.0673 14.2446C13.0673 14.7563 13.482 15.171 13.9937 15.171Z" fill="#454545"/>
<path d="M18.0236 15.171C18.5352 15.171 18.95 14.7563 18.95 14.2446C18.95 13.733 18.5352 13.3182 18.0236 13.3182C17.5119 13.3182 17.0972 13.733 17.0972 14.2446C17.0972 14.7563 17.5119 15.171 18.0236 15.171Z" fill="#454545"/>
<path d="M13.9937 19.2009C14.5053 19.2009 14.9201 18.7862 14.9201 18.2745C14.9201 17.7629 14.5053 17.3481 13.9937 17.3481C13.482 17.3481 13.0673 17.7629 13.0673 18.2745C13.0673 18.7862 13.482 19.2009 13.9937 19.2009Z" fill="#454545"/>
</g>
<defs>
<clipPath id="clip0">
<rect width="23.716" height="23.716" fill="white" transform="translate(0.144043 0.487518)"/>
</clipPath>
</defs>
</svg>
